<svg width="60" height="54" viewBox="0 0 60 54" fill="none" xmlns="http://www.w3.org/2000/svg">
<g clip-path="url(#clip0_2236_18384)">
<path d="M59.4919 0H0V54H59.4919V0ZM6.4656 47.9779V29.86C11.318 31.0651 12.9216 36.5795 14.9075 40.5546C16.1254 42.9905 18.2721 45.918 19.882 47.9779H6.4656ZM28.2822 47.965C27.4499 47.2002 26.6176 46.3743 25.7917 45.481C21.5691 40.8985 19.384 36.4767 17.6294 32.9289C15.502 28.626 14.0945 25.7821 10.3636 24.095C9.15853 23.5487 7.8442 23.2016 6.45275 23.0377V17.8897C8.58331 18.0761 10.6046 18.5966 12.4685 19.4386C17.8672 21.8809 19.9785 26.1484 22.2119 30.6666C23.9054 34.0922 25.8271 37.9774 29.5515 42.02C31.9328 44.6037 34.3879 46.5414 36.5699 47.9682H28.279L28.2822 47.965ZM53.0359 47.7818C52.9749 47.7818 52.9138 47.785 52.8528 47.785C51.0307 47.785 49.2311 47.573 47.4701 47.1488C45.3235 46.6314 42.0328 45.4585 38.5269 42.8009C33.17 38.7454 30.7437 33.7998 28.3979 29.0181C26.2191 24.5834 24.1625 20.393 19.8049 16.691C15.7302 13.2301 11.8161 12.0893 10.3218 11.7615C9.05891 11.4819 7.75744 11.3277 6.45918 11.3052V8.75684L6.50417 6.19245C8.15913 6.22138 9.81409 6.4174 11.4241 6.77089C13.7442 7.28505 18.346 8.7472 23.1149 12.7962C28.2854 17.1859 30.6763 22.0576 32.99 26.7686C35.172 31.2097 37.2318 35.4066 41.6183 38.7294C44.4205 40.8535 47.0009 41.779 48.672 42.1807C50.0988 42.5245 51.5609 42.6884 53.0424 42.6756V47.785L53.0359 47.7818ZM53.0359 11.3084C47.7658 11.4144 43.5079 15.7334 43.5079 21.0293C43.5079 26.3252 47.7658 30.6441 53.0359 30.747V36.1007C50.8122 35.8918 48.7459 35.3359 46.8531 34.4264C41.538 31.8717 39.5841 27.6009 37.5146 23.0763C35.6572 19.0176 33.5524 14.4159 28.4814 9.7691C26.8457 8.2716 25.2004 7.03761 23.6354 6.02535H31.9617C35.4933 9.26779 37.7781 12.5038 39.4652 15.502C41.6376 10.1097 46.8949 6.27922 53.0359 6.19888V11.3116V11.3084Z" fill="url(#paint0_linear_2236_18384)"/>
</g>
<defs>
<linearGradient id="paint0_linear_2236_18384" x1="1.37217" y1="55.3722" x2="58.1165" y2="-1.37217" gradientUnits="userSpaceOnUse">
<stop stop-color="#00578C"/>
<stop offset="0.13" stop-color="#005E91"/>
<stop offset="0.32" stop-color="#0071A1"/>
<stop offset="0.55" stop-color="#0091BB"/>
<stop offset="0.8" stop-color="#00BEDF"/>
<stop offset="0.86" stop-color="#00CBEA"/>
</linearGradient>
<clipPath id="clip0_2236_18384">
<rect width="59.4919" height="54" fill="white"/>
</clipPath>
</defs>
</svg>
