<svg width="70" height="65" viewBox="0 0 70 65" fill="none" xmlns="http://www.w3.org/2000/svg">
<path d="M0 65V0H69.69V65H0ZM7.57263 57.7506H23.2927C21.092 54.9577 19.1409 51.9671 17.4632 48.815C15.1344 44.0282 13.2583 37.3936 7.57263 35.9413V57.7506ZM7.56269 27.7253C9.1439 27.9064 10.6885 28.3361 12.1423 28.9993C16.5146 31.031 18.1619 34.4537 20.6499 39.6342C23.0696 45.1407 26.2941 50.2362 30.212 54.7449C31.1777 55.822 32.1542 56.8156 33.128 57.7349H42.8394C39.8204 55.7059 37.0582 53.3008 34.616 50.5746C30.2518 45.7071 28.0027 41.0317 26.0179 36.907C23.4013 31.4674 20.9296 26.3296 14.6041 23.3916C12.3748 22.3649 9.99164 21.7344 7.55639 21.5271L7.56269 27.7253ZM7.56269 10.5402V13.6045C9.08511 13.6349 10.6009 13.8193 12.088 14.1551C16.1986 15.1976 20.0069 17.2326 23.1958 20.0906C28.3013 24.5477 30.7079 29.5899 33.2629 34.9291C36.0134 40.6863 38.8571 46.6366 45.1301 51.519C48.2347 53.983 51.8009 55.7642 55.6063 56.7515C57.6712 57.2621 59.7878 57.5193 61.9118 57.5176C61.9833 57.5176 62.0557 57.5176 62.1272 57.5176V51.3649C60.4036 51.3842 58.6842 51.1849 57.0082 50.7715C54.005 49.9835 51.1924 48.569 48.7458 46.6161C43.605 42.6159 41.1931 37.5663 38.6381 32.2233C35.9292 26.5534 33.1271 20.6895 27.0713 15.4059C23.1439 11.8901 18.4457 9.40134 13.3777 8.15193C11.4839 7.72353 9.55324 7.49023 7.61428 7.4555L7.56269 10.5402ZM33.3633 11.7566C39.3024 17.3513 41.7678 22.8893 43.9445 27.7764C46.3692 33.2215 48.659 38.3621 54.8849 41.4384C57.1618 42.5487 59.614 43.2318 62.1255 43.4553V37.011C59.1439 36.9438 56.3064 35.6818 54.2204 33.4951C52.1344 31.3084 50.9656 28.3707 50.9642 25.311C50.9656 22.2513 52.1344 19.3136 54.2204 17.1269C56.3064 14.9402 59.1439 13.6782 62.1255 13.611V7.45643C58.6947 7.50783 55.3553 8.59823 52.5267 10.5907C49.6981 12.5831 47.5064 15.3887 46.2271 18.655C43.9148 14.3923 40.9465 10.5409 37.437 7.24936H27.6832C29.6962 8.5863 31.5963 10.0934 33.3633 11.7566Z" fill="white"/>
</svg>
